<?xml version="1.0" encoding="utf-8"?>
<!-- Generator: Adobe Illustrator 25.0.0, SVG Export Plug-In . SVG Version: 6.00 Build 0)  -->
<svg version="1.1" id="Capa_1" xmlns="http://www.w3.org/2000/svg" xmlns:xlink="http://www.w3.org/1999/xlink" x="0px" y="0px"
	 viewBox="0 0 141.76 127.22" style="enable-background:new 0 0 141.76 127.22;" xml:space="preserve">
<style type="text/css">
	.st0{fill:#FFFFFF;stroke:#000000;stroke-width:3.6854;stroke-miterlimit:10;}
	.st1{fill:none;stroke:#000000;stroke-width:4;stroke-miterlimit:10;}
	.st2{fill:none;stroke:#000000;stroke-width:3.0279;stroke-linecap:round;stroke-miterlimit:10;}
	.st3{fill:none;stroke:#000000;stroke-width:4;stroke-linecap:round;stroke-miterlimit:10;}
</style>
<g>
	<path d="M129.97,49.37c-0.74-9.39-6.3-17.28-14.95-21.37v-2.5h-0.38c-2.56-8.16-28.65-11.16-46.49-11.16
		c-17.84,0-43.94,3.01-46.49,11.16h-0.38v42.3c0,5.49,1.03,10.76,2.9,15.66c0.05,0.25,0.14,0.49,0.28,0.71
		c6.56,16.35,22.57,28.21,41.26,28.67c0.81,0.02,1.62,0.03,2.44,0.03l1.09,0c21.29-0.11,39.23-14.51,44.33-33.84
		C124.74,71.83,130.87,60.81,129.97,49.37z M26.12,75.96C27.56,61.43,45.86,49.9,68.15,49.9c12.31,0,23.41,3.52,31.12,9.11
		c0.02,0.02,0.05,0.03,0.07,0.05c6.17,4.5,10.14,10.34,10.83,16.77c-0.07,0.1-4.69,6.4-13.65,7.51
		c-8.56,1.06-18.15-2.84-28.51-11.62c-15.13-12.82-34.37,1.89-40.97,7.77C26.68,78.34,26.37,77.16,26.12,75.96z M68.15,18.03
		c26.59,0,41.24,5.07,42.87,8.23v1.14c-1.63,3.16-16.28,8.23-42.87,8.23c-26.59,0-41.24-5.07-42.87-8.23v-1.14
		C26.91,23.1,41.56,18.03,68.15,18.03z M69.22,108.87l-1.07,0c-0.78,0-1.56-0.01-2.34-0.03c-16.72-0.41-31.11-10.82-37.29-25.29
		c4.35-4.13,23.13-20.45,36.91-8.78c9.99,8.46,19.49,12.74,28.3,12.74c1.11,0,2.2-0.07,3.29-0.2c4.61-0.57,8.25-2.29,10.92-4.09
		C101.69,98.17,86.7,108.78,69.22,108.87z M114.66,73.34c0.23-1.82,0.36-3.66,0.36-5.53V32.5c6.35,3.65,10.38,9.89,10.96,17.18
		C126.67,58.48,122.5,67.05,114.66,73.34z"/>
	<path d="M50.3,75.09c-8.52,1.65-14.33,8.87-14.57,9.18c-0.69,0.86-0.54,2.12,0.32,2.81c0.37,0.29,0.81,0.43,1.24,0.43
		c0.59,0,1.17-0.26,1.57-0.75c0.05-0.06,5.15-6.37,12.2-7.74c1.08-0.21,1.79-1.26,1.58-2.34C52.43,75.59,51.39,74.88,50.3,75.09z"/>
	<path d="M91.71,79.82c0.9,0.16,1.77,0.23,2.6,0.23c7.16,0,11.57-5.27,11.78-5.52c0.7-0.85,0.57-2.1-0.28-2.81
		c-0.85-0.7-2.11-0.58-2.81,0.26c-0.17,0.21-4.26,5.01-10.6,3.9c-1.08-0.19-2.12,0.54-2.31,1.62
		C89.89,78.59,90.62,79.63,91.71,79.82z"/>
</g>
<ellipse class="st0" cx="-493.01" cy="76.25" rx="44.87" ry="10.64"/>
<path class="st1" d="M-537.89,74.93v42.3c0,23.19,18.77,42.46,42.48,43.04c0.79,0.02,1.59,0.03,2.39,0.03c0.36,0,0.72,0,1.08,0
	c24.23-0.12,43.79-19.38,43.79-43.07V74.93"/>
<path class="st1" d="M-448.14,78.71L-448.14,78.71c19.62,8.18,20.87,34.88-1.23,48.52"/>
<path class="st2" d="M-536.66,127.23c0-16.25,19.54-29.41,43.64-29.41c24.1,0,43.64,13.17,43.64,29.41"/>
<path class="st3" d="M-535.03,132.52c0,0,23.33-24.46,40.58-9.84c29.75,25.2,45.08,3.74,45.08,3.74"/>
<path d="M-448.14,122.68c0,0-15.08-25.66-48.21-24.47c-29.34,1.05-40.3,20.58-40.3,20.58V80.37c0,0,30.01,6.53,40.92,6.53
	c11.21,0,47.56-6.53,47.56-6.53L-448.14,122.68z"/>
<path class="st3" d="M-523.87,134.94c0,0,5.49-6.93,13.38-8.46"/>
<path class="st3" d="M-469.11,127.27c7.63,1.34,12.49-4.59,12.49-4.59"/>
</svg>
